<svg width="680" height="340" viewBox="0 0 680 340" xmlns="http://www.w3.org/2000/svg">
<rect x="0" y="0" width="680" height="340" rx="16" fill="#f8f8f8"/>
<g transform="translate(200, 30)">
<path d="M140 20 C60 20 20 70 20 130 C20 180 50 220 90 245 L140 270 L190 245 C230 220 260 180 260 130 C260 70 220 20 140 20Z" fill="#1B5E20" opacity="0.9"/>
<path d="M140 40 C80 40 45 80 45 130 C45 170 65 200 95 220 L140 242 L185 220 C215 200 235 170 235 130 C235 80 200 40 140 40Z" fill="#2E7D32"/>
<line x1="60" y1="230" x2="220" y2="50" stroke="#FFD700" stroke-width="4" stroke-linecap="round"/>
<polygon points="224,44 210,38 216,54" fill="#FFD700"/>
<path d="M65 228 L50 240 L68 225" fill="#FFD700" opacity="0.7"/>
<path d="M62 232 L55 248 L70 230" fill="#FFD700" opacity="0.5"/>
<circle cx="100" cy="185" r="3" fill="#FFD700" opacity="0.4"/>
<circle cx="130" cy="148" r="3.5" fill="#FFD700" opacity="0.5"/>
<circle cx="155" cy="117" r="4" fill="#FFD700" opacity="0.6"/>
<circle cx="180" cy="85" r="4.5" fill="#FFD700" opacity="0.8"/>
</g>
<text x="340" y="280" text-anchor="middle" font-family="system-ui,-apple-system,sans-serif" font-size="32" font-weight="500" fill="#1B5E20" letter-spacing="3">LOGGINHOOD</text>
<text x="340" y="302" text-anchor="middle" font-family="system-ui,-apple-system,sans-serif" font-size="13" fill="#4CAF50" letter-spacing="1.5">LOGGINHOOD.COM</text>
<text x="340" y="325" text-anchor="middle" font-family="system-ui,-apple-system,sans-serif" font-size="12" fill="#888" letter-spacing="2" font-style="italic">EVERY ARROW TELLS A STORY</text>
</svg>
