<svg width="680" height="340" viewBox="0 0 680 340" xmlns="http://www.w3.org/2000/svg">
<rect x="0" y="0" width="680" height="340" rx="16" fill="#f0f5f1"/>
<g transform="translate(270, 15)">
<path d="M70 0 C20 0 0 40 0 80 L0 160 L25 160 L25 90 C25 90 30 50 70 35 C110 50 115 90 115 90 L115 160 L140 160 L140 80 C140 40 120 0 70 0Z" fill="#2E7D32"/>
<path d="M70 5 C28 5 8 40 8 78 L8 150 L25 150 L25 90 C25 90 30 55 70 40 C110 55 115 90 115 90 L115 150 L132 150 L132 78 C132 40 112 5 70 5Z" fill="#388E3C"/>
<circle cx="70" cy="95" r="35" fill="#0d1f12" opacity="0.85"/>
<circle cx="70" cy="95" r="28" fill="none" stroke="#FFD700" stroke-width="1" opacity="0.3"/>
<circle cx="70" cy="95" r="18" fill="none" stroke="#FFD700" stroke-width="1" opacity="0.5"/>
<circle cx="70" cy="95" r="8" fill="none" stroke="#FFD700" stroke-width="1.5" opacity="0.7"/>
<line x1="70" y1="63" x2="70" y2="82" stroke="#FFD700" stroke-width="1.2" opacity="0.5"/>
<line x1="70" y1="108" x2="70" y2="127" stroke="#FFD700" stroke-width="1.2" opacity="0.5"/>
<line x1="38" y1="95" x2="57" y2="95" stroke="#FFD700" stroke-width="1.2" opacity="0.5"/>
<line x1="83" y1="95" x2="102" y2="95" stroke="#FFD700" stroke-width="1.2" opacity="0.5"/>
<circle cx="70" cy="95" r="3" fill="#FFD700"/>
</g>
<text x="340" y="220" text-anchor="middle" font-family="system-ui,-apple-system,sans-serif" font-size="36" font-weight="500" letter-spacing="6" fill="#2E7D32">LOGGINHOOD</text>
<line x1="250" y1="236" x2="430" y2="236" stroke="#FFD700" stroke-width="1.5" opacity="0.6"/>
<text x="340" y="258" text-anchor="middle" font-family="system-ui,-apple-system,sans-serif" font-size="13" letter-spacing="2" fill="#5a7a5d">LOGGINHOOD.COM</text>
<text x="340" y="290" text-anchor="middle" font-family="system-ui,-apple-system,sans-serif" font-size="11" fill="#5a7a5d" letter-spacing="3">AIM HIGHER</text>
</svg>
